<svg width="35" height="35" viewBox="0 0 35 35" fill="none" xmlns="http://www.w3.org/2000/svg">
<path d="M3.09163 19.7255C4.17371 26.6978 10.2404 32.0776 17.5014 32.0776C25.5208 32.0776 32.0818 25.5165 32.0818 17.4972C32.0818 9.47779 25.5223 2.91675 17.5029 2.91675C12.6933 2.91675 8.46121 5.25154 5.83329 8.75008V2.91821L2.921 2.91675L2.91663 13.1251H13.125V10.2084L8.45975 10.207C10.5 7.58487 13.857 5.83341 17.5029 5.83341C23.9166 5.83341 29.1666 11.0834 29.1666 17.4972C29.1666 23.9109 23.9166 29.1624 17.5014 29.1624C11.846 29.1624 7.10058 25.0878 6.05496 19.7255H3.09163Z" fill="#005F15"/>
<path d="M16.0446 10.2068V17.9389L20.7127 24.2053L23.046 22.4597L18.9612 17.0624V10.2068H16.0446Z" fill="#005F15"/>
</svg>
