<svg width="32" height="26" viewBox="0 0 32 26" fill="none" xmlns="http://www.w3.org/2000/svg">
<path d="M5.89115 14.5583C5.47956 14.5583 5.07722 14.6804 4.735 14.9091C4.39278 15.1377 4.12605 15.4627 3.96854 15.843C3.81104 16.2233 3.76983 16.6417 3.85012 17.0454C3.93042 17.449 4.12862 17.8198 4.41965 18.1109C4.71069 18.4019 5.08149 18.6001 5.48516 18.6804C5.88884 18.7607 6.30726 18.7195 6.68752 18.562C7.06777 18.4045 7.39278 18.1377 7.62145 17.7955C7.85011 17.4533 7.97216 17.051 7.97216 16.6394C7.97216 16.0874 7.75291 15.5581 7.36265 15.1679C6.97238 14.7776 6.44307 14.5583 5.89115 14.5583ZM5.89115 17.6799C5.68536 17.6799 5.48419 17.6189 5.31307 17.5045C5.14196 17.3902 5.0086 17.2277 4.92985 17.0376C4.85109 16.8474 4.83049 16.6382 4.87064 16.4364C4.91078 16.2345 5.00988 16.0491 5.1554 15.9036C5.30092 15.7581 5.48632 15.659 5.68816 15.6189C5.89 15.5787 6.09921 15.5993 6.28933 15.6781C6.47946 15.7568 6.64197 15.8902 6.7563 16.0613C6.87063 16.2324 6.93166 16.4336 6.93166 16.6394C6.93166 16.9153 6.82203 17.18 6.6269 17.3751C6.43177 17.5703 6.16711 17.6799 5.89115 17.6799Z" fill="white"/>
<path d="M26.7013 14.5583C26.2897 14.5583 25.8873 14.6804 25.5451 14.9091C25.2029 15.1377 24.9362 15.4627 24.7787 15.843C24.6212 16.2233 24.58 16.6417 24.6602 17.0454C24.7405 17.449 24.9387 17.8198 25.2298 18.1109C25.5208 18.4019 25.8916 18.6001 26.2953 18.6804C26.699 18.7607 27.1174 18.7195 27.4976 18.562C27.8779 18.4045 28.2029 18.1377 28.4316 17.7955C28.6602 17.4533 28.7823 17.051 28.7823 16.6394C28.7823 16.0874 28.563 15.5581 28.1728 15.1679C27.7825 14.7776 27.2532 14.5583 26.7013 14.5583ZM26.7013 17.6799C26.4955 17.6799 26.2943 17.6189 26.1232 17.5045C25.9521 17.3902 25.8187 17.2277 25.74 17.0376C25.6612 16.8474 25.6406 16.6382 25.6808 16.4364C25.7209 16.2345 25.82 16.0491 25.9655 15.9036C26.111 15.7581 26.2964 15.659 26.4983 15.6189C26.7001 15.5787 26.9093 15.5993 27.0995 15.6781C27.2896 15.7568 27.4521 15.8902 27.5664 16.0613C27.6808 16.2324 27.7418 16.4336 27.7418 16.6394C27.7418 16.9153 27.6322 17.18 27.437 17.3751C27.2419 17.5703 26.9772 17.6799 26.7013 17.6799Z" fill="white"/>
<path d="M11.6139 17.1597H20.9785V18.2002H11.6139V17.1597Z" fill="white"/>
<path d="M11.6139 15.0786H20.9785V16.1191H11.6139V15.0786Z" fill="white"/>
<path d="M14.7355 7.2749H17.857V8.31541H14.7355V7.2749Z" fill="white"/>
<path d="M31.9038 11.957V10.9165C31.9026 10.503 31.7377 10.1067 31.4453 9.81427C31.1529 9.52184 30.7566 9.357 30.343 9.35577H28.2828L27.2059 5.57873L26.8834 4.2937C26.7987 3.95629 26.6038 3.65683 26.3295 3.44287C26.0552 3.22891 25.7173 3.11271 25.3694 3.11273H20.9785V1.03172C20.9777 0.756011 20.8678 0.491832 20.6728 0.296878C20.4779 0.101923 20.2137 -0.00796564 19.938 -0.00878906H12.6544C12.3787 -0.00796564 12.1145 0.101923 11.9196 0.296878C11.7246 0.491832 11.6147 0.756011 11.6139 1.03172V3.11273H7.22299C6.87512 3.11271 6.53721 3.22891 6.26293 3.44287C5.98864 3.65683 5.7937 3.95629 5.70905 4.2937L5.39169 5.57353L4.30957 9.35577H2.24937C1.83581 9.357 1.43954 9.52184 1.14711 9.81427C0.854675 10.1067 0.689841 10.503 0.688606 10.9165V11.957C0.689449 12.2206 0.757197 12.4796 0.8855 12.7098C1.0138 12.9401 1.19846 13.1339 1.42216 13.2733C0.951855 13.7565 0.688671 14.4042 0.688606 15.0786V21.3216C0.689324 21.5399 0.736024 21.7555 0.825665 21.9545C0.915305 22.1535 1.04587 22.3314 1.20886 22.4766V24.4431C1.21009 24.8567 1.37493 25.2529 1.66736 25.5454C1.95979 25.8378 2.35606 26.0026 2.76962 26.0039H6.93164C7.3452 26.0026 7.74147 25.8378 8.0339 25.5454C8.32633 25.2529 8.49117 24.8567 8.4924 24.4431V22.8824H24.1V24.4431C24.1012 24.8567 24.2661 25.2529 24.5585 25.5454C24.8509 25.8378 25.2472 26.0026 25.6608 26.0039H29.8228C30.2363 26.0026 30.6326 25.8378 30.925 25.5454C31.2175 25.2529 31.3823 24.8567 31.3835 24.4431V22.4766C31.5465 22.3314 31.6771 22.1535 31.7667 21.9545C31.8564 21.7555 31.9031 21.5399 31.9038 21.3216V15.0786C31.9037 14.4042 31.6405 13.7565 31.1702 13.2733C31.3939 13.1339 31.5786 12.9401 31.7069 12.7098C31.8352 12.4796 31.903 12.2206 31.9038 11.957ZM12.6544 1.03172H19.938V3.11273H12.6544V1.03172ZM6.71834 4.54863C6.74623 4.43584 6.81106 4.33562 6.90252 4.26397C6.99398 4.19231 7.1068 4.15333 7.22299 4.15324H25.3694C25.4856 4.15333 25.5984 4.19231 25.6899 4.26397C25.7813 4.33562 25.8462 4.43584 25.8741 4.54863L26.0353 5.19374H6.55706L6.71834 4.54863ZM6.28133 6.23425H26.3111L28.0903 12.4773H13.1279C13.0056 11.7502 12.6296 11.09 12.0667 10.6139C11.5038 10.1378 10.7904 9.87652 10.0532 9.87652C9.3159 9.87652 8.60249 10.1378 8.0396 10.6139C7.4767 11.09 7.10074 11.7502 6.97847 12.4773H4.50206L6.28133 6.23425ZM12.0613 12.4773H8.04499C8.15858 12.0309 8.41768 11.635 8.78135 11.3523C9.14502 11.0696 9.59252 10.9161 10.0532 10.9161C10.5138 10.9161 10.9613 11.0696 11.325 11.3523C11.6886 11.635 11.9477 12.0309 12.0613 12.4773ZM1.72911 10.9165C1.72911 10.7785 1.78392 10.6462 1.88149 10.5487C1.97906 10.4511 2.11139 10.3963 2.24937 10.3963H4.01302L3.41994 12.4773H2.24937C2.11139 12.4773 1.97906 12.4225 1.88149 12.3249C1.78392 12.2273 1.72911 12.095 1.72911 11.957V10.9165ZM7.4519 24.4431C7.4519 24.5811 7.39708 24.7134 7.29952 24.811C7.20195 24.9086 7.06962 24.9634 6.93164 24.9634H2.76962C2.63164 24.9634 2.49931 24.9086 2.40174 24.811C2.30418 24.7134 2.24937 24.5811 2.24937 24.4431V22.8824H7.4519V24.4431ZM30.343 24.4431C30.343 24.5811 30.2882 24.7134 30.1907 24.811C30.0931 24.9086 29.9608 24.9634 29.8228 24.9634H25.6608C25.5228 24.9634 25.3904 24.9086 25.2929 24.811C25.1953 24.7134 25.1405 24.5811 25.1405 24.4431V22.8824H30.343V24.4431ZM30.8633 21.3216C30.8633 21.4596 30.8085 21.5919 30.7109 21.6895C30.6133 21.787 30.481 21.8418 30.343 21.8418H2.24937C2.11139 21.8418 1.97906 21.787 1.88149 21.6895C1.78392 21.5919 1.72911 21.4596 1.72911 21.3216V20.8013H30.8633V21.3216ZM30.8633 19.7608H1.72911V15.0786C1.73035 14.665 1.89518 14.2687 2.18761 13.9763C2.48004 13.6839 2.87631 13.519 3.28987 13.5178H29.3025C29.7161 13.519 30.1124 13.6839 30.4048 13.9763C30.6972 14.2687 30.8621 14.665 30.8633 15.0786V19.7608ZM30.8633 11.957C30.8633 12.095 30.8085 12.2273 30.7109 12.3249C30.6133 12.4225 30.481 12.4773 30.343 12.4773H29.1725L28.5794 10.3963H30.343C30.481 10.3963 30.6133 10.4511 30.7109 10.5487C30.8085 10.6462 30.8633 10.7785 30.8633 10.9165V11.957Z" fill="white"/>
</svg>
