<svg width="31" height="26" viewBox="0 0 31 26" fill="none" xmlns="http://www.w3.org/2000/svg">
<path d="M27.5303 25.2273C26.9058 25.2401 26.2923 25.0614 25.7724 24.7153C25.3853 24.4624 24.933 24.3277 24.4707 24.3277C24.0083 24.3277 23.556 24.4624 23.169 24.7153C22.6437 25.0497 22.0339 25.2274 21.4112 25.2274C20.7886 25.2274 20.1788 25.0497 19.6535 24.7153C19.2665 24.4622 18.8141 24.3273 18.3516 24.3273C17.8891 24.3273 17.4367 24.4622 17.0497 24.7153C16.5244 25.0497 15.9146 25.2274 15.2919 25.2274C14.6692 25.2274 14.0595 25.0497 13.5342 24.7153C13.1475 24.4623 12.6953 24.3276 12.2332 24.3276C11.771 24.3276 11.3189 24.4623 10.9322 24.7153C10.4559 25.0318 9.90015 25.2077 9.32854 25.2228L9.29704 24.3229C9.71926 24.3129 10.1293 24.1793 10.4764 23.9387C11.0015 23.6044 11.6111 23.4268 12.2336 23.4268C12.8562 23.4268 13.4658 23.6044 13.9909 23.9387C14.3779 24.1917 14.8302 24.3264 15.2926 24.3264C15.755 24.3264 16.2073 24.1917 16.5943 23.9387C17.1197 23.604 17.7296 23.4263 18.3525 23.4263C18.9754 23.4263 19.5853 23.604 20.1107 23.9387C20.4977 24.1917 20.95 24.3264 21.4124 24.3264C21.8747 24.3264 22.3271 24.1917 22.7141 23.9387C23.2394 23.6044 23.8491 23.4268 24.4718 23.4268C25.0945 23.4268 25.7042 23.6044 26.2295 23.9387C26.6175 24.1923 27.0709 24.3273 27.5344 24.3273C27.9978 24.3273 28.4513 24.1923 28.8392 23.9387C29.3586 23.5936 29.971 23.4152 30.5945 23.4275V24.3274C30.1303 24.3147 29.6741 24.4505 29.2923 24.7149C28.771 25.0615 28.1562 25.2403 27.5303 25.2273Z" fill="white"/>
<path d="M3.05759 25.2276C2.4332 25.2405 1.81984 25.0618 1.30009 24.7155C0.918399 24.4509 0.462212 24.315 -0.00205994 24.3277V23.4278C0.62248 23.4148 1.236 23.5935 1.75589 23.9398C2.13737 24.2045 2.59345 24.3404 3.05759 24.3277C3.52195 24.3404 3.97821 24.2044 4.35974 23.9394C4.87853 23.5932 5.49103 23.4147 6.11454 23.4278C6.72294 23.4141 7.32127 23.5846 7.83109 23.9169L7.3771 24.6935C7.00469 24.4428 6.56324 24.3149 6.11454 24.3277C5.6521 24.3152 5.19777 24.4508 4.81779 24.7146C4.29744 25.0618 3.68301 25.2409 3.05759 25.2276Z" fill="white"/>
<path d="M27.5317 22.0776C26.9067 22.0903 26.2928 21.9117 25.7724 21.5655C25.385 21.3124 24.9323 21.1776 24.4695 21.1776C24.0068 21.1776 23.5541 21.3124 23.1667 21.5655C22.6415 21.8999 22.0318 22.0774 21.4092 22.0774C20.7866 22.0774 20.1769 21.8999 19.6517 21.5655C19.2649 21.3126 18.8127 21.1778 18.3504 21.1778C17.8882 21.1778 17.436 21.3126 17.0492 21.5655C16.524 21.9 15.9143 22.0776 15.2917 22.0776C14.6691 22.0776 14.0594 21.9 13.5342 21.5655C13.1474 21.3126 12.6952 21.1778 12.2329 21.1778C11.7707 21.1778 11.3185 21.3126 10.9317 21.5655C10.412 21.9118 9.79859 22.0905 9.17419 22.0776C8.5498 22.0905 7.93642 21.9118 7.4167 21.5655C7.03535 21.3009 6.57944 21.165 6.11544 21.1777C5.6516 21.1651 5.19585 21.301 4.81464 21.5655C4.29574 21.9114 3.68334 22.0901 3.05984 22.0776C2.4353 22.0906 1.82178 21.9119 1.30189 21.5655C0.919783 21.3004 0.462848 21.1645 -0.00205994 21.1777V20.2778C0.622331 20.2649 1.23569 20.4436 1.75544 20.7898C2.13713 21.0544 2.59332 21.1903 3.05759 21.1777C3.52144 21.1903 3.97719 21.0544 4.35839 20.7898C4.8773 20.4439 5.48969 20.2652 6.11319 20.2778C6.73805 20.2645 7.35195 20.4432 7.87204 20.7898C8.25353 21.0545 8.7096 21.1904 9.17375 21.1777C9.63789 21.1904 10.094 21.0545 10.4754 20.7898C11.0006 20.4554 11.6103 20.2777 12.2329 20.2777C12.8556 20.2777 13.4653 20.4554 13.9904 20.7898C14.3774 21.0428 14.8296 21.1776 15.2919 21.1776C15.7542 21.1776 16.2065 21.0428 16.5934 20.7898C17.1186 20.4554 17.7283 20.2777 18.3509 20.2777C18.9735 20.2777 19.5832 20.4554 20.1084 20.7898C20.4953 21.0428 20.9476 21.1776 21.4099 21.1776C21.8722 21.1776 22.3244 21.0428 22.7114 20.7898C23.2371 20.4555 23.8472 20.2779 24.4702 20.2779C25.0932 20.2779 25.7033 20.4555 26.2291 20.7898C26.6167 21.0428 27.0695 21.1775 27.5323 21.1775C27.9952 21.1775 28.448 21.0428 28.8356 20.7898C29.356 20.4438 29.9697 20.2651 30.5945 20.2778V21.1777C30.1293 21.1645 29.6721 21.3004 29.2896 21.5655C28.7695 21.9114 28.1561 22.0901 27.5317 22.0776Z" fill="white"/>
<path d="M27.5303 18.9285C26.9058 18.9412 26.2923 18.7626 25.7724 18.4164C25.3907 18.1518 24.9345 18.0159 24.4702 18.0286C24.1295 18.0169 23.7912 18.0895 23.4853 18.2401L23.0884 17.4302C23.518 17.2196 23.992 17.1157 24.4702 17.1273C25.0955 17.1146 25.7096 17.2938 26.23 17.6407C26.6179 17.8943 27.0713 18.0294 27.5348 18.0294C27.9983 18.0294 28.4517 17.8943 28.8397 17.6407C29.3588 17.2954 29.971 17.1167 30.5945 17.1287V18.0286C30.1302 18.0159 29.6741 18.1516 29.2923 18.416C28.771 18.7626 28.1562 18.9415 27.5303 18.9285Z" fill="white"/>
<path d="M21.4065 18.9281C20.783 18.9412 20.1705 18.7627 19.6517 18.4166C19.2647 18.1634 18.8122 18.0286 18.3498 18.0286C17.8873 18.0286 17.4349 18.1634 17.0478 18.4166C16.5226 18.751 15.9128 18.9286 15.2901 18.9286C14.6674 18.9286 14.0577 18.751 13.5324 18.4166C13.1454 18.1636 12.6931 18.0288 12.2307 18.0288C11.7683 18.0288 11.316 18.1636 10.929 18.4166C10.4093 18.7623 9.7964 18.9408 9.17239 18.9281C8.548 18.9411 7.93465 18.7624 7.41489 18.4161C7.0332 18.1515 6.57702 18.0156 6.11274 18.0283C5.6503 18.0158 5.19597 18.1514 4.81599 18.4152C4.29615 18.7621 3.6824 18.9411 3.05759 18.9281C2.4332 18.9411 1.81984 18.7624 1.30009 18.4161C0.9184 18.1515 0.462213 18.0156 -0.00205994 18.0283V17.1284C0.62248 17.1154 1.236 17.2941 1.75589 17.6404C2.13737 17.9051 2.59345 18.041 3.05759 18.0283C3.52195 18.041 3.97822 17.905 4.35974 17.6399C4.87853 17.2938 5.49103 17.1153 6.11454 17.1284C6.73893 17.1155 7.35228 17.2942 7.87204 17.6404C8.25353 17.9051 8.7096 18.041 9.17374 18.0283C9.63802 18.0409 10.0942 17.905 10.4759 17.6404C11.0012 17.306 11.6109 17.1284 12.2336 17.1284C12.8563 17.1284 13.4661 17.306 13.9913 17.6404C14.3783 17.8934 14.8307 18.0281 15.293 18.0281C15.7554 18.0281 16.2077 17.8934 16.5947 17.6404C17.1201 17.3057 17.73 17.128 18.3529 17.128C18.9758 17.128 19.5857 17.3057 20.1111 17.6404C20.5075 17.907 20.9776 18.0425 21.4551 18.0278C21.4898 18.0282 21.5245 18.0264 21.559 18.0224L21.6787 18.9142C21.5884 18.9247 21.4974 18.9294 21.4065 18.9281Z" fill="white"/>
<path d="M27.5317 15.7775C26.9067 15.7903 26.2928 15.6116 25.7724 15.2655C25.385 15.0124 24.9323 14.8775 24.4695 14.8775C24.0068 14.8775 23.5541 15.0124 23.1667 15.2655C22.6415 15.5998 22.0318 15.7774 21.4092 15.7774C20.7866 15.7774 20.1769 15.5998 19.6517 15.2655C19.2649 15.0125 18.8127 14.8778 18.3504 14.8778C17.8882 14.8778 17.436 15.0125 17.0492 15.2655C16.524 15.5999 15.9143 15.7776 15.2917 15.7776C14.6691 15.7776 14.0594 15.5999 13.5342 15.2655C13.1474 15.0125 12.6952 14.8778 12.2329 14.8778C11.7707 14.8778 11.3185 15.0125 10.9317 15.2655C10.412 15.6118 9.79859 15.7905 9.17419 15.7775C8.5498 15.7905 7.93642 15.6118 7.4167 15.2655C7.03535 15.0009 6.57944 14.865 6.11544 14.8776C5.6516 14.865 5.19585 15.0009 4.81464 15.2655C4.29574 15.6114 3.68334 15.7901 3.05984 15.7775C2.4353 15.7905 1.82178 15.6118 1.30189 15.2655C0.919783 15.0003 0.462848 14.8644 -0.00205994 14.8776V13.9777C0.622331 13.9648 1.23569 14.1435 1.75544 14.4898C2.13713 14.7544 2.59332 14.8903 3.05759 14.8776C3.52144 14.8902 3.97719 14.7543 4.35839 14.4898C4.8773 14.1439 5.48969 13.9652 6.11319 13.9777C6.73805 13.9645 7.35195 14.1432 7.87204 14.4898C8.25353 14.7545 8.7096 14.8904 9.17375 14.8776C9.63789 14.8904 10.094 14.7545 10.4754 14.4898C11.0006 14.1553 11.6103 13.9776 12.2329 13.9776C12.8556 13.9776 13.4653 14.1553 13.9904 14.4898C14.3774 14.7428 14.8296 14.8775 15.2919 14.8775C15.7542 14.8775 16.2065 14.7428 16.5934 14.4898C17.1186 14.1553 17.7283 13.9776 18.3509 13.9776C18.9735 13.9776 19.5832 14.1553 20.1084 14.4898C20.4953 14.7428 20.9476 14.8775 21.4099 14.8775C21.8722 14.8775 22.3244 14.7428 22.7114 14.4898C23.2371 14.1554 23.8472 13.9779 24.4702 13.9779C25.0932 13.9779 25.7033 14.1554 26.2291 14.4898C26.6167 14.7427 27.0695 14.8774 27.5323 14.8774C27.9952 14.8774 28.448 14.7427 28.8356 14.4898C29.356 14.1437 29.9697 13.9651 30.5945 13.9777V14.8776C30.1293 14.8645 29.6721 15.0004 29.2896 15.2655C28.7695 15.6114 28.1561 15.79 27.5317 15.7775Z" fill="white"/>
<path d="M21.1198 15.3962L20.2708 15.0984C20.4895 14.4701 20.5788 13.8041 20.5334 13.1404C20.488 12.4767 20.3089 11.8291 20.0067 11.2364L16.916 5.18418C16.8855 5.12442 16.8687 5.05858 16.8669 4.99149C16.8651 4.92441 16.8784 4.85778 16.9057 4.79648C16.933 4.73518 16.9737 4.68076 17.0247 4.63721C17.0758 4.59367 17.136 4.56209 17.2008 4.54481L23.3601 2.90249C23.5609 2.85 23.7327 2.72037 23.8384 2.54181C23.944 2.36324 23.9748 2.15019 23.9242 1.949C23.8735 1.74781 23.7455 1.57477 23.5679 1.46751C23.3903 1.36025 23.1775 1.32746 22.9759 1.37627L15.5211 3.15806C15.3618 3.19572 15.2132 3.26956 15.087 3.37386C14.9607 3.47816 14.8602 3.61012 14.7932 3.75952C14.7261 3.90892 14.6944 4.07175 14.7004 4.23539C14.7064 4.39904 14.75 4.5591 14.8278 4.70319L17.0415 8.81572C17.0977 8.92024 17.1103 9.04271 17.0766 9.15648C17.0428 9.27024 16.9656 9.36608 16.8615 9.42315L14.0044 10.998L13.5702 10.2097L16.0368 8.84991L14.0363 5.12974C13.8932 4.86417 13.8131 4.56924 13.8022 4.26776C13.7912 3.96627 13.8498 3.66632 13.9733 3.39109C14.0969 3.11586 14.282 2.87273 14.5145 2.68049C14.747 2.48826 15.0206 2.35207 15.3142 2.28246L22.7653 0.501118C23.1991 0.39151 23.6586 0.458709 24.0429 0.687932C24.4271 0.917155 24.7045 1.28963 24.8142 1.7234C24.9238 2.15718 24.8566 2.61673 24.6273 3.00097C24.3981 3.3852 24.0256 3.66264 23.5919 3.77224L17.9702 5.27057L20.8085 10.8265C21.1659 11.5279 21.3777 12.2942 21.4312 13.0796C21.4847 13.8649 21.3788 14.6529 21.1198 15.3962Z" fill="white"/>
<path d="M11.9975 11.084L6.52964 14.0969L6.96372 14.8847L12.4316 11.8717L11.9975 11.084Z" fill="white"/>
<path d="M25.1951 12.4035C24.5276 12.4035 23.8752 12.2056 23.3202 11.8348C22.7653 11.464 22.3328 10.9369 22.0773 10.3203C21.8219 9.70369 21.7551 9.02517 21.8853 8.37056C22.0155 7.71595 22.3369 7.11465 22.8089 6.6427C23.2808 6.17075 23.8821 5.84935 24.5367 5.71914C25.1913 5.58893 25.8698 5.65576 26.4865 5.91118C27.1031 6.16659 27.6302 6.59912 28.001 7.15408C28.3718 7.70903 28.5697 8.36148 28.5697 9.02891C28.5687 9.92362 28.2129 10.7814 27.5802 11.4141C26.9476 12.0467 26.0898 12.4026 25.1951 12.4035ZM25.1951 6.55419C24.7056 6.55419 24.2272 6.69933 23.8202 6.97126C23.4132 7.24319 23.096 7.62968 22.9087 8.08188C22.7214 8.53407 22.6724 9.03166 22.7679 9.5117C22.8634 9.99175 23.0991 10.4327 23.4452 10.7788C23.7913 11.1249 24.2322 11.3606 24.7123 11.4561C25.1923 11.5516 25.6899 11.5026 26.1421 11.3153C26.5943 11.1279 26.9808 10.8108 27.2527 10.4038C27.5246 9.99683 27.6698 9.51836 27.6698 9.02891C27.669 8.37283 27.408 7.74386 26.944 7.27994C26.4801 6.81602 25.8511 6.55503 25.1951 6.55419Z" fill="white"/>
</svg>
