<svg width="231" height="76" viewBox="0 0 231 76" fill="none" xmlns="http://www.w3.org/2000/svg">
<path d="M3.43378 1.336H12.1218C13.6578 1.336 14.4258 1.952 14.4258 3.184C14.4258 3.616 14.2258 4.08 13.8258 4.576C13.1698 4.288 12.2258 4.144 10.9938 4.144H9.09778V16.528C9.09778 17.392 9.36178 17.96 9.88978 18.232C9.28178 18.92 8.54578 19.264 7.68178 19.264C6.11378 19.264 5.32978 18.312 5.32978 16.408V4.144H2.30578C0.769781 4.144 0.00178126 3.528 0.00178126 2.296C0.00178126 1.864 0.201781 1.4 0.601781 0.904C1.25778 1.192 2.20178 1.336 3.43378 1.336ZM16.8837 16.408V8.896C16.8837 8.064 16.6117 7.504 16.0677 7.216C16.6757 6.528 17.4117 6.184 18.2757 6.184C19.6997 6.184 20.4837 6.952 20.6277 8.488C21.2677 6.952 22.3317 6.184 23.8197 6.184C24.5717 6.184 25.1877 6.408 25.6677 6.856C26.1637 7.304 26.4117 7.904 26.4117 8.656C26.4117 9.408 26.2197 10.008 25.8357 10.456C25.4677 10.888 24.8997 11.104 24.1317 11.104C24.0357 11.104 23.8277 11.088 23.5077 11.056C23.5717 10.768 23.6037 10.584 23.6037 10.504C23.6037 10.104 23.4837 9.792 23.2437 9.568C23.0197 9.328 22.7397 9.208 22.4037 9.208C21.5397 9.208 20.9557 9.864 20.6517 11.176V16.528C20.6517 17.392 20.9157 17.96 21.4437 18.232C20.8357 18.92 20.0997 19.264 19.2357 19.264C17.6677 19.264 16.8837 18.312 16.8837 16.408ZM31.8877 15.712C31.8877 16.496 32.3357 16.888 33.2317 16.888C33.8877 16.888 34.4797 16.584 35.0077 15.976V13.648C32.9277 13.76 31.8877 14.448 31.8877 15.712ZM38.7757 10.504V15.952C38.7757 16.96 39.2077 17.6 40.0717 17.872C39.7837 18.272 39.3917 18.608 38.8957 18.88C38.4157 19.136 37.9037 19.264 37.3597 19.264C36.1757 19.264 35.4397 18.736 35.1517 17.68C34.1597 18.736 32.9197 19.264 31.4317 19.264C30.3277 19.264 29.4477 18.992 28.7917 18.448C28.1357 17.904 27.8077 17.136 27.8077 16.144C27.8077 14.928 28.4397 13.96 29.7037 13.24C30.9837 12.504 32.7517 12.12 35.0077 12.088V9.808C35.0077 8.736 34.5757 8.2 33.7117 8.2C33.3597 8.2 33.0637 8.312 32.8237 8.536C32.5997 8.744 32.4877 9.032 32.4877 9.4C32.4877 9.752 32.6157 10.08 32.8717 10.384C32.3277 10.96 31.6397 11.248 30.8077 11.248C29.9917 11.248 29.3837 11.064 28.9837 10.696C28.5997 10.328 28.4077 9.848 28.4077 9.256C28.4077 8.36 28.9517 7.624 30.0397 7.048C31.1437 6.472 32.4237 6.184 33.8797 6.184C35.3517 6.184 36.5357 6.528 37.4317 7.216C38.3277 7.904 38.7757 9 38.7757 10.504ZM54.0477 10.504V16.528C54.0477 17.392 54.3037 17.96 54.8157 18.232C54.2397 18.92 53.5117 19.264 52.6317 19.264C51.0637 19.264 50.2797 18.312 50.2797 16.408V11.056C50.2797 10.48 50.1357 10.032 49.8477 9.712C49.5757 9.376 49.1837 9.208 48.6717 9.208C48.1597 9.208 47.6637 9.448 47.1837 9.928C46.7037 10.392 46.3597 11.088 46.1517 12.016V16.528C46.1517 17.392 46.4157 17.96 46.9437 18.232C46.3357 18.92 45.5997 19.264 44.7357 19.264C43.1677 19.264 42.3837 18.312 42.3837 16.408V8.896C42.3837 8.064 42.1117 7.504 41.5677 7.216C42.1757 6.528 42.8877 6.184 43.7037 6.184C44.5197 6.184 45.1197 6.392 45.5037 6.808C45.8877 7.208 46.1037 7.832 46.1517 8.68C46.5837 7.864 47.1757 7.248 47.9277 6.832C48.6957 6.4 49.5757 6.184 50.5677 6.184C51.5757 6.184 52.4077 6.552 53.0637 7.288C53.7197 8.024 54.0477 9.096 54.0477 10.504ZM67.1215 8.896C67.1215 9.424 66.9695 9.832 66.6655 10.12C66.3615 10.408 65.9295 10.552 65.3695 10.552C64.8095 10.552 64.2735 10.36 63.7615 9.976C63.9695 9.32 63.8735 8.824 63.4735 8.488C63.2175 8.28 62.8655 8.176 62.4175 8.176C61.9855 8.176 61.6335 8.272 61.3615 8.464C61.1055 8.64 60.9775 8.912 60.9775 9.28C60.9775 9.648 61.2095 10 61.6735 10.336C62.1375 10.656 62.6975 10.96 63.3535 11.248C64.0095 11.52 64.6655 11.824 65.3215 12.16C65.9775 12.48 66.5375 12.904 67.0015 13.432C67.4655 13.96 67.6975 14.56 67.6975 15.232C67.6975 16.416 67.1455 17.384 66.0415 18.136C64.9375 18.888 63.6095 19.264 62.0575 19.264C60.5215 19.264 59.2335 18.984 58.1935 18.424C57.1375 17.832 56.6095 17.096 56.6095 16.216C56.6095 15.688 56.8095 15.256 57.2095 14.92C57.6095 14.568 58.0895 14.392 58.6495 14.392C59.5295 14.392 60.1535 14.664 60.5215 15.208C60.2495 15.432 60.1135 15.728 60.1135 16.096C60.1135 16.464 60.2895 16.752 60.6415 16.96C60.9935 17.152 61.4575 17.248 62.0335 17.248C62.6095 17.248 63.0655 17.136 63.4015 16.912C63.7535 16.672 63.9295 16.368 63.9295 16C63.9295 15.632 63.6975 15.288 63.2335 14.968C62.7695 14.648 62.2095 14.344 61.5535 14.056C60.8975 13.768 60.2415 13.456 59.5855 13.12C58.9295 12.784 58.3695 12.352 57.9055 11.824C57.4415 11.28 57.2095 10.68 57.2095 10.024C57.2095 8.984 57.7135 8.088 58.7215 7.336C59.7295 6.568 60.9215 6.184 62.2975 6.184C63.6895 6.184 64.8415 6.44 65.7535 6.952C66.6655 7.464 67.1215 8.112 67.1215 8.896ZM76.2263 17.08C76.8663 17.08 77.4343 16.672 77.9303 15.856C78.4263 15.04 78.6743 14 78.6743 12.736C78.6743 11.472 78.4343 10.496 77.9543 9.808C77.4743 9.104 76.8983 8.752 76.2263 8.752C75.7943 8.752 75.3783 8.896 74.9783 9.184C74.5943 9.456 74.2823 9.832 74.0423 10.312V15.976C74.6343 16.712 75.3623 17.08 76.2263 17.08ZM70.2743 22.576V8.896C70.2743 8.064 70.0023 7.496 69.4583 7.192C70.0663 6.52 70.8023 6.184 71.6663 6.184C72.9303 6.184 73.6823 6.76 73.9223 7.912C74.7863 6.76 75.9463 6.184 77.4023 6.184C78.8583 6.184 80.0663 6.76 81.0263 7.912C81.9863 9.048 82.4663 10.64 82.4663 12.688C82.4663 14.736 81.8903 16.344 80.7383 17.512C79.5863 18.68 78.2583 19.264 76.7543 19.264C75.7623 19.264 74.8583 18.984 74.0423 18.424V22.696C74.0423 23.544 74.3063 24.104 74.8343 24.376C74.2423 25.08 73.5063 25.432 72.6263 25.432C71.0583 25.432 70.2743 24.48 70.2743 22.576ZM90.1291 8.008C88.7531 8.008 88.0651 9.208 88.0651 11.608C88.0651 11.96 88.0811 12.328 88.1131 12.712C88.3051 15.864 89.1851 17.44 90.7531 17.44C92.1291 17.44 92.8171 16.232 92.8171 13.816C92.8171 13.48 92.8011 13.112 92.7691 12.712C92.5451 9.576 91.6651 8.008 90.1291 8.008ZM85.9771 7.888C87.1131 6.752 88.6011 6.184 90.4411 6.184C92.2811 6.184 93.7691 6.752 94.9051 7.888C96.0411 9.008 96.6091 10.616 96.6091 12.712C96.6091 14.808 96.0331 16.424 94.8811 17.56C93.7451 18.696 92.2571 19.264 90.4171 19.264C88.5931 19.264 87.1131 18.696 85.9771 17.56C84.8411 16.424 84.2731 14.808 84.2731 12.712C84.2731 10.616 84.8411 9.008 85.9771 7.888ZM99.6415 16.408V8.896C99.6415 8.064 99.3695 7.504 98.8255 7.216C99.4335 6.528 100.17 6.184 101.034 6.184C102.458 6.184 103.242 6.952 103.386 8.488C104.026 6.952 105.09 6.184 106.578 6.184C107.33 6.184 107.946 6.408 108.426 6.856C108.922 7.304 109.17 7.904 109.17 8.656C109.17 9.408 108.978 10.008 108.594 10.456C108.226 10.888 107.658 11.104 106.89 11.104C106.794 11.104 106.586 11.088 106.266 11.056C106.33 10.768 106.362 10.584 106.362 10.504C106.362 10.104 106.242 9.792 106.002 9.568C105.778 9.328 105.498 9.208 105.162 9.208C104.298 9.208 103.714 9.864 103.41 11.176V16.528C103.41 17.392 103.674 17.96 104.202 18.232C103.594 18.92 102.858 19.264 101.994 19.264C100.426 19.264 99.6415 18.312 99.6415 16.408ZM115.365 8.752V15.232C115.365 16.24 115.757 16.744 116.541 16.744C117.405 16.744 118.205 16.352 118.941 15.568C119.165 15.568 119.349 15.664 119.493 15.856C119.653 16.032 119.733 16.272 119.733 16.576C119.733 17.232 119.333 17.848 118.533 18.424C117.733 18.984 116.741 19.264 115.557 19.264C114.389 19.264 113.437 18.968 112.701 18.376C111.965 17.784 111.597 16.88 111.597 15.664V8.752C111.021 8.736 110.589 8.6 110.301 8.344C110.013 8.072 109.869 7.736 109.869 7.336C109.869 6.936 110.037 6.616 110.373 6.376C110.757 6.424 111.165 6.448 111.597 6.448V5.728C111.597 4.896 111.325 4.336 110.781 4.048C111.389 3.36 112.109 3.016 112.941 3.016C113.789 3.016 114.405 3.248 114.789 3.712C115.173 4.176 115.365 4.896 115.365 5.872V6.448H118.989C119.101 6.576 119.157 6.736 119.157 6.928C119.157 7.424 118.885 7.856 118.341 8.224C117.813 8.576 116.885 8.752 115.557 8.752H115.365ZM133.65 13.336H137.394L135.642 7.168L133.65 13.336ZM144.066 17.896C143.874 18.312 143.546 18.648 143.082 18.904C142.634 19.144 142.098 19.264 141.474 19.264C140.85 19.264 140.338 19.112 139.938 18.808C139.538 18.488 139.178 17.928 138.858 17.128L138.282 15.64H132.834L132.234 17.32C131.786 18.616 131.026 19.264 129.954 19.264C129.442 19.264 128.954 19.152 128.49 18.928C128.042 18.688 127.746 18.392 127.602 18.04C127.874 17.928 128.098 17.744 128.274 17.488C128.466 17.216 128.674 16.8 128.898 16.24L133.818 3.544C133.53 2.92 133.218 2.488 132.882 2.248C133.378 1.48 134.146 1.096 135.186 1.096C135.986 1.096 136.57 1.312 136.938 1.744C137.306 2.176 137.698 2.952 138.114 4.072L142.41 15.688C142.826 16.824 143.378 17.56 144.066 17.896ZM151.343 14.344C152.207 14.344 152.639 13.488 152.639 11.776C152.639 11.552 152.631 11.312 152.615 11.056C152.487 8.88 151.951 7.792 151.007 7.792C150.127 7.792 149.687 8.648 149.687 10.36C149.687 10.568 149.695 10.8 149.711 11.056C149.839 13.248 150.383 14.344 151.343 14.344ZM154.319 20.872H150.503C149.255 20.872 148.183 20.608 147.287 20.08C146.391 19.568 145.943 18.76 145.943 17.656C145.943 16.552 146.599 15.672 147.911 15.016C146.519 14.104 145.823 12.784 145.823 11.056C145.823 9.584 146.343 8.408 147.383 7.528C148.423 6.632 149.687 6.184 151.175 6.184C152.343 6.184 153.391 6.472 154.319 7.048C154.383 6.04 154.639 5.264 155.087 4.72C155.535 4.16 156.071 3.88 156.695 3.88C157.319 3.88 157.807 4.072 158.159 4.456C158.511 4.84 158.687 5.288 158.687 5.8C158.687 6.616 158.431 7.176 157.919 7.48C157.551 7.208 157.191 7.072 156.839 7.072C156.151 7.072 155.703 7.408 155.495 8.08C156.167 8.912 156.503 9.904 156.503 11.056C156.503 12.528 155.983 13.712 154.943 14.608C153.919 15.504 152.663 15.952 151.175 15.952C150.567 15.952 149.975 15.864 149.399 15.688C149.015 15.848 148.823 16.112 148.823 16.48C148.823 16.832 148.967 17.072 149.255 17.2C149.543 17.312 150.039 17.368 150.743 17.368H154.031C155.231 17.368 156.111 17.656 156.671 18.232C157.247 18.808 157.535 19.6 157.535 20.608C157.535 22.032 156.895 23.192 155.615 24.088C154.351 24.984 152.679 25.432 150.599 25.432C148.535 25.432 147.071 25.136 146.207 24.544C145.359 23.968 144.935 23.288 144.935 22.504C144.935 21.896 145.159 21.416 145.607 21.064C146.071 20.712 146.623 20.536 147.263 20.536C147.279 21.336 147.583 21.904 148.175 22.24C148.783 22.576 149.735 22.744 151.031 22.744C152.327 22.744 153.303 22.616 153.959 22.36C154.615 22.12 154.943 21.8 154.943 21.4C154.943 21.048 154.735 20.872 154.319 20.872ZM165.609 11.056C165.897 11.024 166.113 10.936 166.257 10.792C166.401 10.632 166.473 10.336 166.473 9.904C166.473 9.472 166.345 9.08 166.089 8.728C165.849 8.36 165.513 8.176 165.081 8.176C164.649 8.176 164.241 8.448 163.857 8.992C163.473 9.536 163.217 10.328 163.089 11.368L165.609 11.056ZM166.017 16.648C167.345 16.648 168.457 16.144 169.353 15.136C169.721 15.296 169.905 15.632 169.905 16.144C169.905 16.912 169.449 17.624 168.537 18.28C167.625 18.936 166.553 19.264 165.321 19.264C163.417 19.264 161.929 18.744 160.857 17.704C159.801 16.664 159.273 15.176 159.273 13.24C159.273 11.288 159.857 9.624 161.025 8.248C162.193 6.872 163.673 6.184 165.465 6.184C166.841 6.184 167.977 6.632 168.873 7.528C169.769 8.408 170.217 9.416 170.217 10.552C170.217 11.432 170.009 12.064 169.593 12.448C169.177 12.832 168.465 13.04 167.457 13.072L163.017 13.192C163.129 15.496 164.129 16.648 166.017 16.648ZM184.477 10.504V16.528C184.477 17.392 184.733 17.96 185.245 18.232C184.669 18.92 183.941 19.264 183.061 19.264C181.493 19.264 180.709 18.312 180.709 16.408V11.056C180.709 10.48 180.565 10.032 180.277 9.712C180.005 9.376 179.613 9.208 179.101 9.208C178.589 9.208 178.093 9.448 177.613 9.928C177.133 10.392 176.789 11.088 176.581 12.016V16.528C176.581 17.392 176.845 17.96 177.373 18.232C176.765 18.92 176.029 19.264 175.165 19.264C173.597 19.264 172.813 18.312 172.813 16.408V8.896C172.813 8.064 172.541 7.504 171.997 7.216C172.605 6.528 173.317 6.184 174.133 6.184C174.949 6.184 175.549 6.392 175.933 6.808C176.317 7.208 176.533 7.832 176.581 8.68C177.013 7.864 177.605 7.248 178.357 6.832C179.125 6.4 180.005 6.184 180.997 6.184C182.005 6.184 182.837 6.552 183.493 7.288C184.149 8.024 184.477 9.096 184.477 10.504ZM197.887 9.04C197.887 9.632 197.703 10.096 197.335 10.432C196.967 10.752 196.479 10.912 195.871 10.912C195.263 10.912 194.719 10.728 194.239 10.36C194.287 10.168 194.311 9.912 194.311 9.592C194.311 9.272 194.215 8.984 194.023 8.728C193.847 8.472 193.599 8.344 193.279 8.344C192.655 8.344 192.111 8.768 191.647 9.616C191.199 10.464 190.975 11.52 190.975 12.784C190.975 14.032 191.247 14.992 191.791 15.664C192.351 16.32 193.079 16.648 193.975 16.648C195.303 16.648 196.415 16.144 197.311 15.136C197.679 15.28 197.863 15.616 197.863 16.144C197.863 16.96 197.407 17.688 196.495 18.328C195.599 18.952 194.527 19.264 193.279 19.264C191.407 19.264 189.951 18.728 188.911 17.656C187.871 16.584 187.351 15.104 187.351 13.216C187.351 11.328 187.959 9.688 189.175 8.296C190.391 6.888 191.951 6.184 193.855 6.184C194.927 6.184 195.863 6.448 196.663 6.976C197.479 7.488 197.887 8.176 197.887 9.04ZM202.674 0.183999C203.298 0.183999 203.81 0.375999 204.21 0.759999C204.626 1.128 204.834 1.624 204.834 2.248C204.834 2.856 204.57 3.416 204.042 3.928C203.53 4.44 202.938 4.696 202.266 4.696C201.594 4.696 201.05 4.504 200.634 4.12C200.234 3.72 200.034 3.2 200.034 2.56C200.034 1.92 200.314 1.368 200.874 0.904C201.45 0.423999 202.05 0.183999 202.674 0.183999ZM204.402 9.04V16.528C204.402 17.392 204.666 17.96 205.194 18.232C204.586 18.92 203.85 19.264 202.986 19.264C201.418 19.264 200.634 18.312 200.634 16.408V8.896C200.634 8.064 200.362 7.504 199.818 7.216C200.426 6.528 201.146 6.184 201.978 6.184C202.826 6.184 203.442 6.416 203.826 6.88C204.21 7.344 204.402 8.064 204.402 9.04ZM213.609 11.056C213.897 11.024 214.113 10.936 214.257 10.792C214.401 10.632 214.473 10.336 214.473 9.904C214.473 9.472 214.345 9.08 214.089 8.728C213.849 8.36 213.513 8.176 213.081 8.176C212.649 8.176 212.241 8.448 211.857 8.992C211.473 9.536 211.217 10.328 211.089 11.368L213.609 11.056ZM214.017 16.648C215.345 16.648 216.457 16.144 217.353 15.136C217.721 15.296 217.905 15.632 217.905 16.144C217.905 16.912 217.449 17.624 216.537 18.28C215.625 18.936 214.553 19.264 213.321 19.264C211.417 19.264 209.929 18.744 208.857 17.704C207.801 16.664 207.273 15.176 207.273 13.24C207.273 11.288 207.857 9.624 209.025 8.248C210.193 6.872 211.673 6.184 213.465 6.184C214.841 6.184 215.977 6.632 216.873 7.528C217.769 8.408 218.217 9.416 218.217 10.552C218.217 11.432 218.009 12.064 217.593 12.448C217.177 12.832 216.465 13.04 215.457 13.072L211.017 13.192C211.129 15.496 212.129 16.648 214.017 16.648ZM230.293 8.896C230.293 9.424 230.141 9.832 229.837 10.12C229.533 10.408 229.101 10.552 228.541 10.552C227.981 10.552 227.445 10.36 226.933 9.976C227.141 9.32 227.045 8.824 226.645 8.488C226.389 8.28 226.037 8.176 225.589 8.176C225.157 8.176 224.805 8.272 224.533 8.464C224.277 8.64 224.149 8.912 224.149 9.28C224.149 9.648 224.381 10 224.845 10.336C225.309 10.656 225.869 10.96 226.525 11.248C227.181 11.52 227.837 11.824 228.493 12.16C229.149 12.48 229.709 12.904 230.173 13.432C230.637 13.96 230.869 14.56 230.869 15.232C230.869 16.416 230.317 17.384 229.213 18.136C228.109 18.888 226.781 19.264 225.229 19.264C223.693 19.264 222.405 18.984 221.365 18.424C220.309 17.832 219.781 17.096 219.781 16.216C219.781 15.688 219.981 15.256 220.381 14.92C220.781 14.568 221.261 14.392 221.821 14.392C222.701 14.392 223.325 14.664 223.693 15.208C223.421 15.432 223.285 15.728 223.285 16.096C223.285 16.464 223.461 16.752 223.813 16.96C224.165 17.152 224.629 17.248 225.205 17.248C225.781 17.248 226.237 17.136 226.573 16.912C226.925 16.672 227.101 16.368 227.101 16C227.101 15.632 226.869 15.288 226.405 14.968C225.941 14.648 225.381 14.344 224.725 14.056C224.069 13.768 223.413 13.456 222.757 13.12C222.101 12.784 221.541 12.352 221.077 11.824C220.613 11.28 220.381 10.68 220.381 10.024C220.381 8.984 220.885 8.088 221.893 7.336C222.901 6.568 224.093 6.184 225.469 6.184C226.861 6.184 228.013 6.44 228.925 6.952C229.837 7.464 230.293 8.112 230.293 8.896ZM60.4667 43.76C59.8747 44.032 59.2267 44.168 58.5227 44.168C57.8347 44.168 57.2907 43.992 56.8907 43.64C56.4907 43.272 56.2667 42.632 56.2187 41.72L55.5467 29.576L51.3467 42.896C51.1067 43.632 50.5947 44 49.8107 44C49.3627 43.984 49.0507 43.888 48.8747 43.712C48.6987 43.536 48.5547 43.256 48.4427 42.872L44.0987 29.552L43.4027 41.648C43.3387 42.544 43.1547 43.208 42.8507 43.64C42.5627 44.056 42.0427 44.264 41.2907 44.264C40.5387 44.264 39.8667 43.952 39.2747 43.328C39.7387 42.896 39.9947 42.256 40.0427 41.408L41.0027 29.144C41.0027 29.048 41.0027 28.944 41.0027 28.832C41.0027 28.08 40.8427 27.48 40.5227 27.032C41.6747 26.408 42.9067 26.096 44.2187 26.096C45.5307 26.096 46.4507 26.408 46.9787 27.032C47.5227 27.656 47.9947 28.712 48.3947 30.2L50.3147 37.088L52.1867 30.32C52.6507 28.64 53.2347 27.52 53.9387 26.96C54.6587 26.384 55.5867 26.096 56.7227 26.096C57.8747 26.096 58.8587 26.272 59.6747 26.624C59.3867 27.104 59.2427 27.696 59.2427 28.4C59.2427 28.544 59.2507 28.704 59.2667 28.88L59.9867 41.312C60.0187 42.432 60.1787 43.248 60.4667 43.76ZM66.8681 40.712C66.8681 41.496 67.3161 41.888 68.2121 41.888C68.8681 41.888 69.4601 41.584 69.9881 40.976V38.648C67.9081 38.76 66.8681 39.448 66.8681 40.712ZM73.7561 35.504V40.952C73.7561 41.96 74.1881 42.6 75.0521 42.872C74.7641 43.272 74.3721 43.608 73.8761 43.88C73.3961 44.136 72.8841 44.264 72.3401 44.264C71.1561 44.264 70.4201 43.736 70.1321 42.68C69.1401 43.736 67.9001 44.264 66.4121 44.264C65.3081 44.264 64.4281 43.992 63.7721 43.448C63.1161 42.904 62.7881 42.136 62.7881 41.144C62.7881 39.928 63.4201 38.96 64.6841 38.24C65.9641 37.504 67.7321 37.12 69.9881 37.088V34.808C69.9881 33.736 69.5561 33.2 68.6921 33.2C68.3401 33.2 68.0441 33.312 67.8041 33.536C67.5801 33.744 67.4681 34.032 67.4681 34.4C67.4681 34.752 67.5961 35.08 67.8521 35.384C67.3081 35.96 66.6201 36.248 65.7881 36.248C64.9721 36.248 64.3641 36.064 63.9641 35.696C63.5801 35.328 63.3881 34.848 63.3881 34.256C63.3881 33.36 63.9321 32.624 65.0201 32.048C66.1241 31.472 67.4041 31.184 68.8601 31.184C70.3321 31.184 71.5161 31.528 72.4121 32.216C73.3081 32.904 73.7561 34 73.7561 35.504ZM89.0282 35.504V41.528C89.0282 42.392 89.2842 42.96 89.7962 43.232C89.2202 43.92 88.4922 44.264 87.6122 44.264C86.0442 44.264 85.2602 43.312 85.2602 41.408V36.056C85.2602 35.48 85.1162 35.032 84.8282 34.712C84.5562 34.376 84.1642 34.208 83.6522 34.208C83.1402 34.208 82.6442 34.448 82.1642 34.928C81.6842 35.392 81.3402 36.088 81.1322 37.016V41.528C81.1322 42.392 81.3962 42.96 81.9242 43.232C81.3162 43.92 80.5802 44.264 79.7162 44.264C78.1482 44.264 77.3642 43.312 77.3642 41.408V33.896C77.3642 33.064 77.0922 32.504 76.5482 32.216C77.1562 31.528 77.8682 31.184 78.6842 31.184C79.5002 31.184 80.1002 31.392 80.4842 31.808C80.8682 32.208 81.0842 32.832 81.1322 33.68C81.5642 32.864 82.1562 32.248 82.9082 31.832C83.6762 31.4 84.5562 31.184 85.5482 31.184C86.5562 31.184 87.3882 31.552 88.0442 32.288C88.7002 33.024 89.0282 34.096 89.0282 35.504ZM95.79 40.712C95.79 41.496 96.238 41.888 97.134 41.888C97.79 41.888 98.382 41.584 98.91 40.976V38.648C96.83 38.76 95.79 39.448 95.79 40.712ZM102.678 35.504V40.952C102.678 41.96 103.11 42.6 103.974 42.872C103.686 43.272 103.294 43.608 102.798 43.88C102.318 44.136 101.806 44.264 101.262 44.264C100.078 44.264 99.342 43.736 99.054 42.68C98.062 43.736 96.822 44.264 95.334 44.264C94.23 44.264 93.35 43.992 92.694 43.448C92.038 42.904 91.71 42.136 91.71 41.144C91.71 39.928 92.342 38.96 93.606 38.24C94.886 37.504 96.654 37.12 98.91 37.088V34.808C98.91 33.736 98.478 33.2 97.614 33.2C97.262 33.2 96.966 33.312 96.726 33.536C96.502 33.744 96.39 34.032 96.39 34.4C96.39 34.752 96.518 35.08 96.774 35.384C96.23 35.96 95.542 36.248 94.71 36.248C93.894 36.248 93.286 36.064 92.886 35.696C92.502 35.328 92.31 34.848 92.31 34.256C92.31 33.36 92.854 32.624 93.942 32.048C95.046 31.472 96.326 31.184 97.782 31.184C99.254 31.184 100.438 31.528 101.334 32.216C102.23 32.904 102.678 34 102.678 35.504ZM111.206 39.344C112.07 39.344 112.502 38.488 112.502 36.776C112.502 36.552 112.494 36.312 112.478 36.056C112.35 33.88 111.814 32.792 110.87 32.792C109.99 32.792 109.55 33.648 109.55 35.36C109.55 35.568 109.558 35.8 109.574 36.056C109.702 38.248 110.246 39.344 111.206 39.344ZM114.182 45.872H110.366C109.118 45.872 108.046 45.608 107.15 45.08C106.254 44.568 105.806 43.76 105.806 42.656C105.806 41.552 106.462 40.672 107.774 40.016C106.382 39.104 105.686 37.784 105.686 36.056C105.686 34.584 106.206 33.408 107.246 32.528C108.286 31.632 109.55 31.184 111.038 31.184C112.206 31.184 113.254 31.472 114.182 32.048C114.246 31.04 114.502 30.264 114.95 29.72C115.398 29.16 115.934 28.88 116.558 28.88C117.182 28.88 117.67 29.072 118.022 29.456C118.374 29.84 118.55 30.288 118.55 30.8C118.55 31.616 118.294 32.176 117.782 32.48C117.414 32.208 117.054 32.072 116.702 32.072C116.014 32.072 115.566 32.408 115.358 33.08C116.03 33.912 116.366 34.904 116.366 36.056C116.366 37.528 115.846 38.712 114.806 39.608C113.782 40.504 112.526 40.952 111.038 40.952C110.43 40.952 109.838 40.864 109.262 40.688C108.878 40.848 108.686 41.112 108.686 41.48C108.686 41.832 108.83 42.072 109.118 42.2C109.406 42.312 109.902 42.368 110.606 42.368H113.894C115.094 42.368 115.974 42.656 116.534 43.232C117.11 43.808 117.398 44.6 117.398 45.608C117.398 47.032 116.758 48.192 115.478 49.088C114.214 49.984 112.542 50.432 110.462 50.432C108.398 50.432 106.934 50.136 106.07 49.544C105.222 48.968 104.798 48.288 104.798 47.504C104.798 46.896 105.022 46.416 105.47 46.064C105.934 45.712 106.486 45.536 107.126 45.536C107.142 46.336 107.446 46.904 108.038 47.24C108.646 47.576 109.598 47.744 110.894 47.744C112.19 47.744 113.166 47.616 113.822 47.36C114.478 47.12 114.806 46.8 114.806 46.4C114.806 46.048 114.598 45.872 114.182 45.872ZM125.472 36.056C125.76 36.024 125.976 35.936 126.12 35.792C126.264 35.632 126.336 35.336 126.336 34.904C126.336 34.472 126.208 34.08 125.952 33.728C125.712 33.36 125.376 33.176 124.944 33.176C124.512 33.176 124.104 33.448 123.72 33.992C123.336 34.536 123.08 35.328 122.952 36.368L125.472 36.056ZM125.88 41.648C127.208 41.648 128.32 41.144 129.216 40.136C129.584 40.296 129.768 40.632 129.768 41.144C129.768 41.912 129.312 42.624 128.4 43.28C127.488 43.936 126.416 44.264 125.184 44.264C123.28 44.264 121.792 43.744 120.72 42.704C119.664 41.664 119.136 40.176 119.136 38.24C119.136 36.288 119.72 34.624 120.888 33.248C122.056 31.872 123.536 31.184 125.328 31.184C126.704 31.184 127.84 31.632 128.736 32.528C129.632 33.408 130.08 34.416 130.08 35.552C130.08 36.432 129.872 37.064 129.456 37.448C129.04 37.832 128.328 38.04 127.32 38.072L122.88 38.192C122.992 40.496 123.992 41.648 125.88 41.648ZM152.237 35.504V41.528C152.237 42.392 152.493 42.96 153.005 43.232C152.429 43.92 151.701 44.264 150.821 44.264C149.253 44.264 148.469 43.312 148.469 41.408V36.056C148.469 35.48 148.325 35.032 148.037 34.712C147.765 34.376 147.373 34.208 146.861 34.208C146.349 34.208 145.853 34.44 145.373 34.904C144.893 35.352 144.549 36.024 144.341 36.92V41.528C144.341 42.392 144.597 42.96 145.109 43.232C144.533 43.92 143.805 44.264 142.925 44.264C141.357 44.264 140.573 43.312 140.573 41.408V36.056C140.573 35.48 140.429 35.032 140.141 34.712C139.869 34.376 139.477 34.208 138.965 34.208C138.453 34.208 137.957 34.448 137.477 34.928C136.997 35.392 136.653 36.088 136.445 37.016V41.528C136.445 42.392 136.709 42.96 137.237 43.232C136.629 43.92 135.893 44.264 135.029 44.264C133.461 44.264 132.677 43.312 132.677 41.408V33.896C132.677 33.064 132.405 32.504 131.861 32.216C132.469 31.528 133.181 31.184 133.997 31.184C134.813 31.184 135.413 31.392 135.797 31.808C136.181 32.208 136.397 32.832 136.445 33.68C136.877 32.864 137.469 32.248 138.221 31.832C138.989 31.4 139.813 31.184 140.693 31.184C141.589 31.184 142.341 31.424 142.949 31.904C143.557 32.384 143.965 33.08 144.173 33.992C144.589 33.08 145.197 32.384 145.997 31.904C146.797 31.424 147.709 31.184 148.733 31.184C149.757 31.184 150.597 31.552 151.253 32.288C151.909 33.024 152.237 34.096 152.237 35.504ZM161.449 36.056C161.737 36.024 161.953 35.936 162.097 35.792C162.241 35.632 162.313 35.336 162.313 34.904C162.313 34.472 162.185 34.08 161.929 33.728C161.689 33.36 161.353 33.176 160.921 33.176C160.489 33.176 160.081 33.448 159.697 33.992C159.313 34.536 159.057 35.328 158.929 36.368L161.449 36.056ZM161.857 41.648C163.185 41.648 164.297 41.144 165.193 40.136C165.561 40.296 165.745 40.632 165.745 41.144C165.745 41.912 165.289 42.624 164.377 43.28C163.465 43.936 162.393 44.264 161.161 44.264C159.257 44.264 157.769 43.744 156.697 42.704C155.641 41.664 155.113 40.176 155.113 38.24C155.113 36.288 155.697 34.624 156.865 33.248C158.033 31.872 159.513 31.184 161.305 31.184C162.681 31.184 163.817 31.632 164.713 32.528C165.609 33.408 166.057 34.416 166.057 35.552C166.057 36.432 165.849 37.064 165.433 37.448C165.017 37.832 164.305 38.04 163.297 38.072L158.857 38.192C158.969 40.496 159.969 41.648 161.857 41.648ZM180.317 35.504V41.528C180.317 42.392 180.573 42.96 181.085 43.232C180.509 43.92 179.781 44.264 178.901 44.264C177.333 44.264 176.549 43.312 176.549 41.408V36.056C176.549 35.48 176.405 35.032 176.117 34.712C175.845 34.376 175.453 34.208 174.941 34.208C174.429 34.208 173.933 34.448 173.453 34.928C172.973 35.392 172.629 36.088 172.421 37.016V41.528C172.421 42.392 172.685 42.96 173.213 43.232C172.605 43.92 171.869 44.264 171.005 44.264C169.437 44.264 168.653 43.312 168.653 41.408V33.896C168.653 33.064 168.381 32.504 167.837 32.216C168.445 31.528 169.157 31.184 169.973 31.184C170.789 31.184 171.389 31.392 171.773 31.808C172.157 32.208 172.373 32.832 172.421 33.68C172.853 32.864 173.445 32.248 174.197 31.832C174.965 31.4 175.845 31.184 176.837 31.184C177.845 31.184 178.677 31.552 179.333 32.288C179.989 33.024 180.317 34.096 180.317 35.504ZM187.799 33.752V40.232C187.799 41.24 188.191 41.744 188.975 41.744C189.839 41.744 190.639 41.352 191.375 40.568C191.599 40.568 191.783 40.664 191.927 40.856C192.087 41.032 192.167 41.272 192.167 41.576C192.167 42.232 191.767 42.848 190.967 43.424C190.167 43.984 189.175 44.264 187.991 44.264C186.823 44.264 185.871 43.968 185.135 43.376C184.399 42.784 184.031 41.88 184.031 40.664V33.752C183.455 33.736 183.023 33.6 182.735 33.344C182.447 33.072 182.303 32.736 182.303 32.336C182.303 31.936 182.471 31.616 182.807 31.376C183.191 31.424 183.599 31.448 184.031 31.448V30.728C184.031 29.896 183.759 29.336 183.215 29.048C183.823 28.36 184.543 28.016 185.375 28.016C186.223 28.016 186.839 28.248 187.223 28.712C187.607 29.176 187.799 29.896 187.799 30.872V31.448H191.423C191.535 31.576 191.591 31.736 191.591 31.928C191.591 32.424 191.319 32.856 190.775 33.224C190.247 33.576 189.319 33.752 187.991 33.752H187.799ZM85.5922 54.648C85.5922 55.24 85.4002 55.72 85.0162 56.088C84.6482 56.44 84.1362 56.616 83.4802 56.616C82.8242 56.616 82.2082 56.408 81.6322 55.992C81.7602 55.736 81.8242 55.408 81.8242 55.008C81.8242 54.592 81.5842 54.224 81.1042 53.904C80.6402 53.584 79.9682 53.424 79.0882 53.424C78.2242 53.424 77.5122 53.584 76.9522 53.904C76.3922 54.224 76.1122 54.656 76.1122 55.2C76.1122 55.728 76.4482 56.224 77.1202 56.688C77.8082 57.136 78.6322 57.576 79.5922 58.008C80.5682 58.424 81.5362 58.88 82.4962 59.376C83.4722 59.872 84.2962 60.52 84.9682 61.32C85.6562 62.12 86.0002 63.016 86.0002 64.008C86.0002 65.544 85.3122 66.808 83.9362 67.8C82.5762 68.776 80.9202 69.264 78.9682 69.264C77.0322 69.264 75.3922 68.904 74.0482 68.184C72.7042 67.448 72.0322 66.504 72.0322 65.352C72.0322 64.68 72.2642 64.144 72.7282 63.744C73.2082 63.344 73.7762 63.144 74.4322 63.144C75.1042 63.144 75.7602 63.4 76.4002 63.912C76.0162 64.264 75.8242 64.688 75.8242 65.184C75.8242 65.68 76.1122 66.096 76.6882 66.432C77.2802 66.768 78.0642 66.936 79.0402 66.936C80.0322 66.936 80.8082 66.736 81.3682 66.336C81.9442 65.936 82.2322 65.408 82.2322 64.752C82.2322 64.08 81.8882 63.488 81.2002 62.976C80.5282 62.448 79.7042 61.976 78.7282 61.56C77.7682 61.144 76.8002 60.704 75.8242 60.24C74.8642 59.776 74.0402 59.192 73.3522 58.488C72.6802 57.768 72.3442 56.952 72.3442 56.04C72.3442 54.536 73.0002 53.336 74.3122 52.44C75.6242 51.544 77.2322 51.096 79.1362 51.096C81.0402 51.096 82.5922 51.432 83.7922 52.104C84.9922 52.776 85.5922 53.624 85.5922 54.648ZM97.4997 58.872C97.6757 58.392 97.7637 57.96 97.7637 57.576C97.7637 57.192 97.6757 56.872 97.4997 56.616C97.9477 56.328 98.4677 56.184 99.0597 56.184C99.9077 56.184 100.54 56.504 100.956 57.144C101.164 57.464 101.268 57.84 101.268 58.272C101.268 58.704 101.164 59.2 100.956 59.76L96.3717 72.168C95.5717 74.344 94.3077 75.432 92.5797 75.432C91.8117 75.432 91.1797 75.232 90.6837 74.832C90.1877 74.432 89.9397 73.952 89.9397 73.392C89.9397 72.848 90.0837 72.344 90.3717 71.88C90.8037 72.232 91.2197 72.408 91.6197 72.408C92.0197 72.408 92.3717 72.288 92.6757 72.048C92.9957 71.824 93.2277 71.496 93.3717 71.064L93.9957 69.24C93.9477 69.24 93.9077 69.24 93.8757 69.24C93.2677 69.24 92.6917 69.008 92.1477 68.544C91.6037 68.064 91.1957 67.384 90.9237 66.504L88.6437 59.208C88.4677 58.632 88.3077 58.208 88.1637 57.936C88.0357 57.648 87.8437 57.408 87.5877 57.216C88.3077 56.528 89.0437 56.184 89.7957 56.184C90.5477 56.184 91.1317 56.4 91.5477 56.832C91.9637 57.264 92.2917 57.952 92.5317 58.896L94.7397 67.008L97.4997 58.872ZM113.176 58.896C113.176 59.424 113.024 59.832 112.72 60.12C112.416 60.408 111.984 60.552 111.424 60.552C110.864 60.552 110.328 60.36 109.816 59.976C110.024 59.32 109.928 58.824 109.528 58.488C109.272 58.28 108.92 58.176 108.472 58.176C108.04 58.176 107.688 58.272 107.416 58.464C107.16 58.64 107.032 58.912 107.032 59.28C107.032 59.648 107.264 60 107.728 60.336C108.192 60.656 108.752 60.96 109.408 61.248C110.064 61.52 110.72 61.824 111.376 62.16C112.032 62.48 112.592 62.904 113.056 63.432C113.52 63.96 113.752 64.56 113.752 65.232C113.752 66.416 113.2 67.384 112.096 68.136C110.992 68.888 109.664 69.264 108.112 69.264C106.576 69.264 105.288 68.984 104.248 68.424C103.192 67.832 102.664 67.096 102.664 66.216C102.664 65.688 102.864 65.256 103.264 64.92C103.664 64.568 104.144 64.392 104.704 64.392C105.584 64.392 106.208 64.664 106.576 65.208C106.304 65.432 106.168 65.728 106.168 66.096C106.168 66.464 106.344 66.752 106.696 66.96C107.048 67.152 107.512 67.248 108.088 67.248C108.664 67.248 109.12 67.136 109.456 66.912C109.808 66.672 109.984 66.368 109.984 66C109.984 65.632 109.752 65.288 109.288 64.968C108.824 64.648 108.264 64.344 107.608 64.056C106.952 63.768 106.296 63.456 105.64 63.12C104.984 62.784 104.424 62.352 103.96 61.824C103.496 61.28 103.264 60.68 103.264 60.024C103.264 58.984 103.768 58.088 104.776 57.336C105.784 56.568 106.976 56.184 108.352 56.184C109.744 56.184 110.896 56.44 111.808 56.952C112.72 57.464 113.176 58.112 113.176 58.896ZM120.217 58.752V65.232C120.217 66.24 120.609 66.744 121.393 66.744C122.257 66.744 123.057 66.352 123.793 65.568C124.017 65.568 124.201 65.664 124.345 65.856C124.505 66.032 124.585 66.272 124.585 66.576C124.585 67.232 124.185 67.848 123.385 68.424C122.585 68.984 121.593 69.264 120.409 69.264C119.241 69.264 118.289 68.968 117.553 68.376C116.817 67.784 116.449 66.88 116.449 65.664V58.752C115.873 58.736 115.441 58.6 115.153 58.344C114.865 58.072 114.721 57.736 114.721 57.336C114.721 56.936 114.889 56.616 115.225 56.376C115.609 56.424 116.017 56.448 116.449 56.448V55.728C116.449 54.896 116.177 54.336 115.633 54.048C116.241 53.36 116.961 53.016 117.793 53.016C118.641 53.016 119.257 53.248 119.641 53.712C120.025 54.176 120.217 54.896 120.217 55.872V56.448H123.841C123.953 56.576 124.009 56.736 124.009 56.928C124.009 57.424 123.737 57.856 123.193 58.224C122.665 58.576 121.737 58.752 120.409 58.752H120.217ZM132.351 61.056C132.639 61.024 132.855 60.936 132.999 60.792C133.143 60.632 133.215 60.336 133.215 59.904C133.215 59.472 133.087 59.08 132.831 58.728C132.591 58.36 132.255 58.176 131.823 58.176C131.391 58.176 130.983 58.448 130.599 58.992C130.215 59.536 129.959 60.328 129.831 61.368L132.351 61.056ZM132.759 66.648C134.087 66.648 135.199 66.144 136.095 65.136C136.463 65.296 136.647 65.632 136.647 66.144C136.647 66.912 136.191 67.624 135.279 68.28C134.367 68.936 133.295 69.264 132.063 69.264C130.159 69.264 128.671 68.744 127.599 67.704C126.543 66.664 126.015 65.176 126.015 63.24C126.015 61.288 126.599 59.624 127.767 58.248C128.935 56.872 130.415 56.184 132.207 56.184C133.583 56.184 134.719 56.632 135.615 57.528C136.511 58.408 136.959 59.416 136.959 60.552C136.959 61.432 136.751 62.064 136.335 62.448C135.919 62.832 135.207 63.04 134.199 63.072L129.759 63.192C129.871 65.496 130.871 66.648 132.759 66.648ZM159.116 60.504V66.528C159.116 67.392 159.372 67.96 159.884 68.232C159.308 68.92 158.58 69.264 157.7 69.264C156.132 69.264 155.348 68.312 155.348 66.408V61.056C155.348 60.48 155.204 60.032 154.916 59.712C154.644 59.376 154.252 59.208 153.74 59.208C153.228 59.208 152.732 59.44 152.252 59.904C151.772 60.352 151.428 61.024 151.22 61.92V66.528C151.22 67.392 151.476 67.96 151.988 68.232C151.412 68.92 150.684 69.264 149.804 69.264C148.236 69.264 147.452 68.312 147.452 66.408V61.056C147.452 60.48 147.308 60.032 147.02 59.712C146.748 59.376 146.356 59.208 145.844 59.208C145.332 59.208 144.836 59.448 144.356 59.928C143.876 60.392 143.532 61.088 143.324 62.016V66.528C143.324 67.392 143.588 67.96 144.116 68.232C143.508 68.92 142.772 69.264 141.908 69.264C140.34 69.264 139.556 68.312 139.556 66.408V58.896C139.556 58.064 139.284 57.504 138.74 57.216C139.348 56.528 140.06 56.184 140.876 56.184C141.692 56.184 142.292 56.392 142.676 56.808C143.06 57.208 143.276 57.832 143.324 58.68C143.756 57.864 144.348 57.248 145.1 56.832C145.868 56.4 146.692 56.184 147.572 56.184C148.468 56.184 149.22 56.424 149.828 56.904C150.436 57.384 150.844 58.08 151.052 58.992C151.468 58.08 152.076 57.384 152.876 56.904C153.676 56.424 154.588 56.184 155.612 56.184C156.636 56.184 157.476 56.552 158.132 57.288C158.788 58.024 159.116 59.096 159.116 60.504Z" fill="black"/>
</svg>
