<svg width="42" height="42" viewBox="0 0 42 42" fill="none" xmlns="http://www.w3.org/2000/svg">
<path d="M39.375 3.92827L28.8658 3.92831V1.3125C28.8658 0.587344 28.2785 0 27.5533 0C26.8282 0 26.2408 0.587344 26.2408 1.3125V3.92766H15.7408V1.3125C15.7408 0.587344 15.1535 0 14.4283 0C13.7032 0 13.1158 0.587344 13.1158 1.3125V3.92766H2.625C1.17534 3.92766 0 5.103 0 6.55266V39.3652C0 40.8148 1.17534 41.9902 2.625 41.9902H39.375C40.8247 41.9902 42 40.8148 42 39.3652V6.55266C42 5.10361 40.8247 3.92827 39.375 3.92827ZM39.375 39.3652H2.625V6.55266H13.1158V7.875C13.1158 8.60011 13.7032 9.1875 14.4283 9.1875C15.1535 9.1875 15.7408 8.60011 15.7408 7.875V6.55331H26.2408V7.87566C26.2408 8.60081 26.8282 9.18816 27.5533 9.18816C28.2785 9.18816 28.8658 8.60081 28.8658 7.87566V6.55331H39.375V39.3652ZM30.1875 20.9908H32.8125C33.537 20.9908 34.125 20.4028 34.125 19.6783V17.0533C34.125 16.3288 33.537 15.7408 32.8125 15.7408H30.1875C29.463 15.7408 28.875 16.3288 28.875 17.0533V19.6783C28.875 20.4028 29.463 20.9908 30.1875 20.9908ZM30.1875 31.4901H32.8125C33.537 31.4901 34.125 30.9028 34.125 30.1776V27.5526C34.125 26.8281 33.537 26.2401 32.8125 26.2401H30.1875C29.463 26.2401 28.875 26.8281 28.875 27.5526V30.1776C28.875 30.9034 29.463 31.4901 30.1875 31.4901ZM22.3125 26.2401H19.6875C18.963 26.2401 18.375 26.8281 18.375 27.5526V30.1776C18.375 30.9028 18.963 31.4901 19.6875 31.4901H22.3125C23.037 31.4901 23.625 30.9028 23.625 30.1776V27.5526C23.625 26.8288 23.037 26.2401 22.3125 26.2401ZM22.3125 15.7408H19.6875C18.963 15.7408 18.375 16.3288 18.375 17.0533V19.6783C18.375 20.4028 18.963 20.9908 19.6875 20.9908H22.3125C23.037 20.9908 23.625 20.4028 23.625 19.6783V17.0533C23.625 16.3281 23.037 15.7408 22.3125 15.7408ZM11.8125 15.7408H9.1875C8.463 15.7408 7.875 16.3288 7.875 17.0533V19.6783C7.875 20.4028 8.463 20.9908 9.1875 20.9908H11.8125C12.537 20.9908 13.125 20.4028 13.125 19.6783V17.0533C13.125 16.3281 12.537 15.7408 11.8125 15.7408ZM11.8125 26.2401H9.1875C8.463 26.2401 7.875 26.8281 7.875 27.5526V30.1776C7.875 30.9028 8.463 31.4901 9.1875 31.4901H11.8125C12.537 31.4901 13.125 30.9028 13.125 30.1776V27.5526C13.125 26.8288 12.537 26.2401 11.8125 26.2401Z" fill="#005F15"/>
</svg>
